<svg xmlns="http://www.w3.org/2000/svg" viewBox="0 0 480 184" width="480" height="184" role="img" aria-label="Detour">
  <defs>
    <linearGradient id="b" x1="0" y1="0" x2="1" y2="1"><stop offset="0" stop-color="#ff8a3d"/><stop offset="1" stop-color="#ffd166" stop-opacity="0.15"/></linearGradient>
    <linearGradient id="f" x1="0" y1="0" x2="1" y2="1"><stop offset="0" stop-color="#121826"/><stop offset="1" stop-color="#0c111c"/></linearGradient>
    <radialGradient id="glow" cx="1" cy="0" r="1"><stop offset="0" stop-color="#ff8a3d" stop-opacity="0.28"/><stop offset="1" stop-color="#ff8a3d" stop-opacity="0"/></radialGradient>
  </defs>
  <rect x="1" y="1" width="478" height="182" rx="18" fill="url(#f)"/>
  <rect x="1" y="1" width="478" height="182" rx="18" fill="url(#glow)"/>
  <rect x="1" y="1" width="478" height="182" rx="18" fill="none" stroke="url(#b)" stroke-width="1.6"/>
  <rect x="1" y="30" width="4" height="40" rx="2" fill="#ff8a3d"><animate attributeName="height" values="40;64;40" dur="4s" repeatCount="indefinite"/></rect>
  <g transform="translate(46 46)">
    <circle r="24" fill="#ff8a3d" fill-opacity="0.13"/>
    <path d="M-12 10 L-12 -4 Q-12 -12 -4 -12 L6 -12" fill="none" stroke="#ffd166" stroke-width="2.6" stroke-linecap="round"/><path d="M2 -18 L12 -12 L2 -6" fill="none" stroke="#ffd166" stroke-width="2.6" stroke-linecap="round" stroke-linejoin="round"/><circle cx="-12" cy="12" r="3" fill="#ffd166"/>
  </g>
  <text x="84" y="44" font-family="'Segoe UI','Helvetica Neue',Helvetica,Arial,sans-serif" font-size="24" font-weight="700" fill="#f0f6fc">Detour</text>
  <text x="84" y="64" font-family="'SF Mono',Menlo,Consolas,'Liberation Mono',monospace" font-size="12" fill="#ffd166" opacity="0.85">Win + Mac  ·  v0.2</text>
  <text x="28" y="98" font-family="'Segoe UI','Helvetica Neue',Helvetica,Arial,sans-serif" font-size="14.5" fill="#c9d1d9">One-click DPI bypass for Windows and macOS.</text>
  <text x="28" y="118" font-family="'Segoe UI','Helvetica Neue',Helvetica,Arial,sans-serif" font-size="14.5" fill="#c9d1d9">No VPN, no servers, no accounts.</text>
  <rect x="28" y="132" width="46" height="24" rx="12" fill="#ff8a3d" fill-opacity="0.14" stroke="#ff8a3d" stroke-opacity="0.45"/><text x="51.0" y="148.5" text-anchor="middle" font-family="'SF Mono',Menlo,Consolas,'Liberation Mono',monospace" font-size="12" fill="#ffd166">Rust</text><rect x="82" y="132" width="70" height="24" rx="12" fill="#ff8a3d" fill-opacity="0.14" stroke="#ff8a3d" stroke-opacity="0.45"/><text x="117.0" y="148.5" text-anchor="middle" font-family="'SF Mono',Menlo,Consolas,'Liberation Mono',monospace" font-size="12" fill="#ffd166">Windows</text><rect x="160" y="132" width="54" height="24" rx="12" fill="#ff8a3d" fill-opacity="0.14" stroke="#ff8a3d" stroke-opacity="0.45"/><text x="187.0" y="148.5" text-anchor="middle" font-family="'SF Mono',Menlo,Consolas,'Liberation Mono',monospace" font-size="12" fill="#ffd166">macOS</text>
  <text x="452" y="148.5" text-anchor="end" font-family="'Segoe UI','Helvetica Neue',Helvetica,Arial,sans-serif" font-size="18" fill="#ffd166" opacity="0.9">&#8594;</text>
</svg>
